<?xml version="1.0" encoding="utf-8"?>
<svg version="1.1" xmlns:xlink="http://www.w3.org/1999/xlink" width="27px" height="27px" xmlns="http://www.w3.org/2000/svg">
  <g transform="matrix(1 0 0 1 -15 -13 )">
    <path d="M 26.201450892857142 12.200625  C 26.73381696428572 13.708124999999997  27 15.581249999999999  27 17.819999999999997  C 27 19.687499999999996  26.36216517857143 22.224375  25.086495535714285 25.430625  C 25.05636160714286 25.509375000000002  25.00362723214286 25.644375  24.928292410714285 25.835625  C 24.852957589285715 26.026874999999997  24.785156250000004 26.195625  24.724888392857142 26.341874999999998  C 24.66462053571429 26.488125  24.59933035714286 26.611874999999998  24.529017857142858 26.713125  C 24.408482142857142 26.904375  24.267857142857142 27  24.107142857142858 27  C 23.956473214285715 27  23.83844866071429 26.94375  23.753069196428573 26.83125  C 23.66768973214286 26.718749999999996  23.625 26.578125  23.625 26.409375  C 23.625 26.308125  23.63755580357143 26.1590625  23.662667410714285 25.9621875  C 23.687779017857142 25.7653125  23.700334821428573 25.633125  23.700334821428573 25.565625  C 23.75055803571429 24.800625  23.775669642857146 24.10875  23.775669642857142 23.49  C 23.775669642857146 22.35375  23.687779017857146 21.335625  23.511997767857142 20.435624999999998  C 23.336216517857146 19.535624999999996  23.09263392857143 18.7565625  22.78125 18.0984375  C 22.469866071428573 17.4403125  22.068080357142858 16.872187499999995  21.575892857142858 16.3940625  C 21.08370535714286 15.9159375  20.553850446428573 15.524999999999999  19.986328125 15.22125  C 19.41880580357143 14.9175  18.750837053571427 14.678437499999998  17.982421875 14.504062499999998  C 17.214006696428573 14.3296875  16.440569196428573 14.20875  15.662109375 14.141249999999998  C 14.883649553571429 14.07375  14.002232142857142 14.040000000000001  13.017857142857142 14.040000000000001  L 9.642857142857142 14.040000000000001  L 9.642857142857142 18.36  C 9.642857142857142 18.6525  9.547433035714286 18.905625  9.356584821428571 19.119375  C 9.165736607142858 19.333125  8.939732142857144 19.439999999999998  8.678571428571429 19.439999999999998  C 8.417410714285715 19.439999999999998  8.19140625 19.333125  8.000558035714286 19.119375  L 0.28627232142857145 10.479375000000001  C 0.09542410714285714 10.265624999999998  0 10.012499999999998  0 9.719999999999999  C 0 9.427499999999998  0.09542410714285714 9.174374999999998  0.28627232142857145 8.960625  L 8.000558035714286 0.32062499999999916  C 8.19140625 0.10687499999999872  8.417410714285715 0  8.678571428571429 0  C 8.939732142857144 0  9.165736607142858 0.10687499999999872  9.356584821428571 0.32062499999999916  C 9.547433035714286 0.5343749999999966  9.642857142857142 0.7874999999999972  9.642857142857142 1.080000000000001  L 9.642857142857142 5.399999999999999  L 13.017857142857142 5.399999999999999  C 20.1796875 5.399999999999999  24.57421875 7.666874999999999  26.201450892857142 12.200625  Z " fill-rule="nonzero" fill="#ffffff" stroke="none" transform="matrix(1 0 0 1 15 13 )" />
  </g>
</svg>